<?xml version="1.0" encoding="utf-8"?>
<!-- Generator: Adobe Illustrator 16.0.0, SVG Export Plug-In . SVG Version: 6.00 Build 0)  -->
<!DOCTYPE svg PUBLIC "-//W3C//DTD SVG 1.1//EN" "http://www.w3.org/Graphics/SVG/1.1/DTD/svg11.dtd">
<svg version="1.1" id="Layer_1" xmlns="http://www.w3.org/2000/svg" xmlns:xlink="http://www.w3.org/1999/xlink" x="0px" y="0px"
	 width="960px" height="560px" viewBox="0 0 960 560" enable-background="new 0 0 960 560" xml:space="preserve">
<g>
	
		<rect x="36.934" y="96.494" transform="matrix(-0.7071 0.7071 -0.7071 -0.7071 614.4872 1208.6038)" fill="#EEEEEE" width="40" height="1270.145"/>
	
		<rect x="93.501" y="39.925" transform="matrix(-0.7071 0.7071 -0.7071 -0.7071 671.0411 1072.0554)" fill="#EEEEEE" width="40.001" height="1270.145"/>
	
		<rect x="150.071" y="-16.642" transform="matrix(-0.7071 0.7071 -0.7071 -0.7071 727.6367 935.4476)" fill="#EEEEEE" width="40" height="1270.143"/>
	
		<rect x="206.639" y="-73.211" transform="matrix(-0.7071 0.7071 -0.7071 -0.7071 784.1929 798.8983)" fill="#EEEEEE" width="40" height="1270.143"/>
	
		<rect x="263.208" y="-129.778" transform="matrix(-0.7071 0.7071 -0.7071 -0.7071 840.762 662.3309)" fill="#EEEEEE" width="40" height="1270.142"/>
	
		<rect x="319.778" y="-186.346" transform="matrix(-0.7071 0.7071 -0.7071 -0.7071 897.3347 525.7429)" fill="#EEEEEE" width="39.998" height="1270.142"/>
	
		<rect x="376.346" y="-242.917" transform="matrix(-0.7071 0.7071 -0.7071 -0.7071 953.8992 389.1733)" fill="#EEEEEE" width="39.998" height="1270.144"/>
	
		<rect x="432.914" y="-299.485" transform="matrix(-0.7071 0.7071 -0.7071 -0.7071 1010.4647 252.6052)" fill="#EEEEEE" width="40" height="1270.144"/>
	
		<rect x="489.482" y="-356.053" transform="matrix(-0.7071 0.7071 -0.7071 -0.7071 1067.0359 116.0564)" fill="#EEEEEE" width="40" height="1270.143"/>
	
		<rect x="546.05" y="-412.621" transform="matrix(-0.7071 0.7071 -0.7071 -0.7071 1123.6042 -20.5118)" fill="#EEEEEE" width="40" height="1270.143"/>
	
		<rect x="602.618" y="-469.19" transform="matrix(-0.7071 0.7071 -0.7071 -0.7071 1180.1843 -157.0608)" fill="#EEEEEE" width="40.001" height="1270.144"/>
	
		<rect x="659.186" y="-525.76" transform="matrix(-0.7071 0.7071 -0.7071 -0.7071 1236.7543 -293.6304)" fill="#EEEEEE" width="40.001" height="1270.145"/>
	
		<rect x="715.755" y="-582.329" transform="matrix(-0.7071 0.7071 -0.7071 -0.7071 1293.3254 -430.1985)" fill="#EEEEEE" width="40.001" height="1270.145"/>
	
		<rect x="772.325" y="-638.896" transform="matrix(-0.7071 0.7071 -0.7071 -0.7071 1349.8799 -566.786)" fill="#EEEEEE" width="40" height="1270.144"/>
	
		<rect x="828.892" y="-695.463" transform="matrix(-0.7071 0.7071 -0.7071 -0.7071 1406.4146 -703.3818)" fill="#EEEEEE" width="40.002" height="1270.142"/>
</g>
<g>
	<g>
		<defs>
			<rect id="SVGID_1_" x="65.429" y="218.2" width="829.143" height="123.6"/>
		</defs>
		<clipPath id="SVGID_2_">
			<use xlink:href="#SVGID_1_"  overflow="visible"/>
		</clipPath>
		<polygon clip-path="url(#SVGID_2_)" fill="#FBAF3C" points="65.429,253.979 81.586,253.979 107.858,294.805 134.132,253.979 
			150.29,253.979 150.29,340.319 135.118,340.319 135.118,278.399 107.858,319.104 107.366,319.104 80.354,278.647 80.354,340.319 
			65.429,340.319 		"/>
		<polygon clip-path="url(#SVGID_2_)" fill="#FBAF3C" points="172.495,253.979 236.51,253.979 236.51,267.546 187.666,267.546 
			187.666,289.995 230.96,289.995 230.96,303.562 187.666,303.562 187.666,326.751 237.128,326.751 237.128,340.319 
			172.495,340.319 		"/>
		<polygon clip-path="url(#SVGID_2_)" fill="#FBAF3C" points="255.138,253.979 271.296,253.979 297.568,294.805 323.841,253.979 
			339.999,253.979 339.999,340.319 324.827,340.319 324.827,278.399 297.568,319.104 297.075,319.104 270.063,278.647 
			270.063,340.319 255.138,340.319 		"/>
		<g clip-path="url(#SVGID_2_)">
			<defs>
				<rect id="SVGID_3_" x="25.805" y="179.079" width="912.742" height="200.02"/>
			</defs>
			<clipPath id="SVGID_4_">
				<use xlink:href="#SVGID_3_"  overflow="visible"/>
			</clipPath>
			<path clip-path="url(#SVGID_4_)" fill="#FBAF3C" d="M358.381,297.396v-0.247c0-24.299,18.748-44.65,45.267-44.65
				c26.52,0,45.021,20.104,45.021,44.404v0.246c0,24.299-18.748,44.65-45.268,44.65S358.381,321.694,358.381,297.396
				 M432.757,297.396v-0.247c0-16.775-12.211-30.712-29.355-30.712s-29.109,13.69-29.109,30.466v0.246
				c0,16.775,12.211,30.713,29.355,30.713C420.794,327.861,432.757,314.17,432.757,297.396"/>
			<path clip-path="url(#SVGID_4_)" fill="#FBAF3C" d="M467.05,253.979h38.482c10.855,0,19.365,3.207,24.916,8.633
				c4.562,4.688,7.154,11.102,7.154,18.625v0.247c0,14.185-8.511,22.696-20.599,26.149l23.312,32.687h-17.885l-21.215-30.097
				h-18.994v30.097H467.05V253.979z M504.423,296.778c10.854,0,17.762-5.674,17.762-14.431v-0.247
				c0-9.251-6.661-14.308-17.885-14.308h-22.078v28.985H504.423z"/>
			<polygon clip-path="url(#SVGID_4_)" fill="#FBAF3C" points="578.556,306.276 544.267,253.979 562.151,253.979 586.327,292.214 
				610.749,253.979 628.14,253.979 593.851,305.905 593.851,340.319 578.556,340.319 			"/>
			<path clip-path="url(#SVGID_4_)" fill="#34D1FB" d="M816.173,288.775l-0.043-0.243c-4.235-23.295-24.839-39.56-50.029-35.987
				l-3.402-18.714c3.273-1.553,5.239-5.148,4.561-8.883c-0.812-4.465-5.088-7.427-9.552-6.614c-4.465,0.812-7.426,5.089-6.614,9.553
				c0.583,3.206,2.955,5.628,5.897,6.442l3.516,19.334c-23.813,6.152-36.873,28.403-32.731,51.184l0.045,0.242
				c4.346,23.907,25.93,40.418,52.021,35.675C805.932,336.02,820.521,312.683,816.173,288.775 M777.533,326.604
				c-16.723,3.04-32.714-7.823-35.929-24.633l60.887-11.07C805.4,307.766,794.256,323.562,777.533,326.604"/>
			<path clip-path="url(#SVGID_4_)" fill="#34D1FB" d="M641.463,253.978h38.73c9.868,0,17.638,2.714,22.571,7.648
				c3.824,3.822,5.798,8.511,5.798,14.308v0.246c0,10.361-5.921,15.912-12.334,19.242c10.113,3.453,17.145,9.25,17.145,20.969v0.247
				c0,15.418-12.705,23.681-31.946,23.681h-39.964V253.978z M677.108,290.364c9.744,0,16.283-3.823,16.283-11.717v-0.248
				c0-6.783-5.428-10.978-15.172-10.978h-21.832v22.942H677.108z M681.55,326.874c10.361,0,16.651-4.069,16.651-11.841v-0.247
				c0-7.276-5.797-11.595-17.761-11.595h-24.053v23.683H681.55z"/>
			<polygon clip-path="url(#SVGID_4_)" fill="#34D1FB" points="851.893,268.039 824.51,268.039 824.51,253.979 894.569,253.979 
				894.569,268.039 867.187,268.039 867.187,340.318 851.893,340.318 			"/>
		</g>
	</g>
</g>
</svg>
