<?xml version="1.0" encoding="utf-8"?>
<!-- Generator: Adobe Illustrator 16.0.0, SVG Export Plug-In . SVG Version: 6.00 Build 0)  -->
<!DOCTYPE svg PUBLIC "-//W3C//DTD SVG 1.1//EN" "http://www.w3.org/Graphics/SVG/1.1/DTD/svg11.dtd">
<svg version="1.1" id="Layer_1" xmlns="http://www.w3.org/2000/svg" xmlns:xlink="http://www.w3.org/1999/xlink" x="0px" y="0px"
	 width="960px" height="560px" viewBox="0 0 960 560" enable-background="new 0 0 960 560" xml:space="preserve">
<g>
	
		<rect x="36.934" y="96.494" transform="matrix(-0.7071 0.7071 -0.7071 -0.7071 614.4872 1208.6038)" fill="#EEEEEE" width="40" height="1270.145"/>
	
		<rect x="93.501" y="39.925" transform="matrix(-0.7071 0.7071 -0.7071 -0.7071 671.0411 1072.0554)" fill="#EEEEEE" width="40.001" height="1270.145"/>
	
		<rect x="150.071" y="-16.642" transform="matrix(-0.7071 0.7071 -0.7071 -0.7071 727.6367 935.4476)" fill="#EEEEEE" width="40" height="1270.143"/>
	
		<rect x="206.639" y="-73.211" transform="matrix(-0.7071 0.7071 -0.7071 -0.7071 784.1929 798.8983)" fill="#EEEEEE" width="40" height="1270.143"/>
	
		<rect x="263.208" y="-129.778" transform="matrix(-0.7071 0.7071 -0.7071 -0.7071 840.762 662.3309)" fill="#EEEEEE" width="40" height="1270.142"/>
	
		<rect x="319.778" y="-186.346" transform="matrix(-0.7071 0.7071 -0.7071 -0.7071 897.3347 525.7429)" fill="#EEEEEE" width="39.998" height="1270.142"/>
	
		<rect x="376.346" y="-242.917" transform="matrix(-0.7071 0.7071 -0.7071 -0.7071 953.8992 389.1733)" fill="#EEEEEE" width="39.998" height="1270.144"/>
	
		<rect x="432.914" y="-299.485" transform="matrix(-0.7071 0.7071 -0.7071 -0.7071 1010.4647 252.6052)" fill="#EEEEEE" width="40" height="1270.144"/>
	
		<rect x="489.482" y="-356.053" transform="matrix(-0.7071 0.7071 -0.7071 -0.7071 1067.0359 116.0564)" fill="#EEEEEE" width="40" height="1270.143"/>
	
		<rect x="546.05" y="-412.621" transform="matrix(-0.7071 0.7071 -0.7071 -0.7071 1123.6042 -20.5118)" fill="#EEEEEE" width="40" height="1270.143"/>
	
		<rect x="602.618" y="-469.19" transform="matrix(-0.7071 0.7071 -0.7071 -0.7071 1180.1843 -157.0608)" fill="#EEEEEE" width="40.001" height="1270.144"/>
	
		<rect x="659.186" y="-525.76" transform="matrix(-0.7071 0.7071 -0.7071 -0.7071 1236.7543 -293.6304)" fill="#EEEEEE" width="40.001" height="1270.145"/>
	
		<rect x="715.755" y="-582.329" transform="matrix(-0.7071 0.7071 -0.7071 -0.7071 1293.3254 -430.1985)" fill="#EEEEEE" width="40.001" height="1270.145"/>
	
		<rect x="772.325" y="-638.896" transform="matrix(-0.7071 0.7071 -0.7071 -0.7071 1349.8799 -566.786)" fill="#EEEEEE" width="40" height="1270.144"/>
	
		<rect x="828.892" y="-695.463" transform="matrix(-0.7071 0.7071 -0.7071 -0.7071 1406.4146 -703.3818)" fill="#EEEEEE" width="40.002" height="1270.142"/>
</g>
<g>
	<path fill="#333333" d="M320.194,256.408l7.1-8.443c6.429,5.565,12.857,8.731,21.205,8.731c7.292,0,11.897-3.358,11.897-8.443
		v-0.192c0-4.797-2.687-7.388-15.16-10.266c-14.296-3.454-22.355-7.676-22.355-20.053v-0.191c0-11.514,9.595-19.478,22.931-19.478
		c9.787,0,17.558,2.975,24.371,8.443l-6.333,8.923c-6.044-4.509-12.089-6.908-18.23-6.908c-6.908,0-10.938,3.55-10.938,7.964v0.192
		c0,5.181,3.07,7.484,15.927,10.554c14.2,3.454,21.588,8.539,21.588,19.669v0.192c0,12.569-9.882,20.053-23.986,20.053
		C337.944,267.154,328.254,263.604,320.194,256.408z"/>
	<path fill="#333333" d="M415.755,266.195v-6.237c-3.454,4.126-8.731,7.292-16.407,7.292c-9.595,0-18.038-5.469-18.038-15.639
		v-0.192c0-11.226,8.731-16.599,20.533-16.599c6.141,0,10.074,0.863,14.008,2.11v-0.959c0-7.004-4.414-10.842-12.473-10.842
		c-5.661,0-9.883,1.248-14.488,3.167l-3.166-9.307c5.565-2.495,11.034-4.222,19.285-4.222c14.968,0,22.26,7.868,22.26,21.396v30.032
		H415.755z M416.043,244.99c-2.975-1.151-7.1-2.015-11.609-2.015c-7.292,0-11.61,2.975-11.61,7.868v0.192
		c0,4.797,4.318,7.484,9.787,7.484c7.676,0,13.433-4.318,13.433-10.65V244.99z"/>
	<path fill="#333333" d="M434.367,215.535h12.473l13.625,37.228l13.721-37.228h12.186l-20.725,51.044h-10.458L434.367,215.535z"/>
	<path fill="#333333" d="M490.014,215.535h12.473l13.625,37.228l13.72-37.228h12.186l-20.725,51.044h-10.458L490.014,215.535z"/>
	<path fill="#333333" d="M548.825,278.764l3.934-8.635c2.11,1.151,4.413,1.919,6.812,1.919c3.262,0,5.276-1.439,7.196-5.853
		l-21.109-50.66h12.378l14.392,37.611l13.145-37.611h12.09l-20.148,52.099c-4.03,10.362-8.54,14.2-16.695,14.2
		C555.925,281.834,552.375,280.683,548.825,278.764z"/>
	<path fill="#333333" d="M350.417,303.697h7.1l30.607,67.643h-8.156l-7.868-17.75h-36.556l-7.964,17.75h-7.771L350.417,303.697z
		 M369.127,346.777l-15.255-34.253l-15.352,34.253H369.127z"/>
	<path fill="#333333" d="M395.989,365.008l3.742-5.277c5.373,4.029,11.322,6.332,17.174,6.332c5.949,0,10.267-3.07,10.267-7.867
		v-0.192c0-4.989-5.853-6.908-12.377-8.731c-7.772-2.206-16.407-4.893-16.407-14.008v-0.191c0-8.54,7.1-14.201,16.887-14.201
		c6.045,0,12.761,2.111,17.846,5.47l-3.358,5.564c-4.605-2.974-9.883-4.797-14.68-4.797c-5.853,0-9.595,3.07-9.595,7.196v0.191
		c0,4.701,6.141,6.524,12.761,8.539c7.676,2.303,15.927,5.277,15.927,14.2v0.192c0,9.402-7.771,14.871-17.654,14.871
		C409.422,372.299,401.554,369.517,395.989,365.008z"/>
	<path fill="#333333" d="M442.809,365.008l3.742-5.277c5.373,4.029,11.322,6.332,17.174,6.332c5.949,0,10.267-3.07,10.267-7.867
		v-0.192c0-4.989-5.853-6.908-12.377-8.731c-7.772-2.206-16.407-4.893-16.407-14.008v-0.191c0-8.54,7.1-14.201,16.887-14.201
		c6.045,0,12.761,2.111,17.846,5.47l-3.358,5.564c-4.605-2.974-9.883-4.797-14.68-4.797c-5.853,0-9.595,3.07-9.595,7.196v0.191
		c0,4.701,6.141,6.524,12.761,8.539c7.676,2.303,15.927,5.277,15.927,14.2v0.192c0,9.402-7.771,14.871-17.654,14.871
		C456.241,372.299,448.373,369.517,442.809,365.008z"/>
	<path fill="#333333" d="M516.588,366.062c6.812,0,11.61-2.782,15.64-7.004l4.605,4.126c-4.989,5.564-11.034,9.307-20.437,9.307
		c-13.625,0-24.754-10.458-24.754-25.905c0-14.393,10.074-25.906,23.795-25.906c14.68,0,23.123,11.705,23.123,26.289
		c0,0.672,0,1.439-0.096,2.591h-39.339C500.182,360.018,507.857,366.062,516.588,366.062z M531.076,343.611
		c-0.863-9.02-6.045-16.695-15.831-16.695c-8.539,0-15.063,7.101-16.119,16.695H531.076z"/>
	<path fill="#333333" d="M547.386,365.008l3.741-5.277c5.373,4.029,11.322,6.332,17.175,6.332c5.949,0,10.267-3.07,10.267-7.867
		v-0.192c0-4.989-5.853-6.908-12.377-8.731c-7.771-2.206-16.407-4.893-16.407-14.008v-0.191c0-8.54,7.101-14.201,16.887-14.201
		c6.045,0,12.761,2.111,17.847,5.47l-3.358,5.564c-4.605-2.974-9.883-4.797-14.681-4.797c-5.853,0-9.594,3.07-9.594,7.196v0.191
		c0,4.701,6.141,6.524,12.761,8.539c7.676,2.303,15.927,5.277,15.927,14.2v0.192c0,9.402-7.771,14.871-17.654,14.871
		C560.818,372.299,552.95,369.517,547.386,365.008z"/>
	<path fill="#333333" d="M594.205,365.008l3.742-5.277c5.373,4.029,11.321,6.332,17.174,6.332c5.949,0,10.267-3.07,10.267-7.867
		v-0.192c0-4.989-5.853-6.908-12.377-8.731c-7.772-2.206-16.407-4.893-16.407-14.008v-0.191c0-8.54,7.1-14.201,16.887-14.201
		c6.045,0,12.761,2.111,17.846,5.47l-3.357,5.564c-4.605-2.974-9.883-4.797-14.68-4.797c-5.854,0-9.596,3.07-9.596,7.196v0.191
		c0,4.701,6.141,6.524,12.762,8.539c7.676,2.303,15.927,5.277,15.927,14.2v0.192c0,9.402-7.771,14.871-17.654,14.871
		C607.638,372.299,599.77,369.517,594.205,365.008z"/>
	<path fill="#333333" d="M646.109,321.735h7.388v8.347c3.262-4.893,7.676-9.402,16.022-9.402c8.061,0,13.241,4.317,15.928,9.883
		c3.55-5.469,8.827-9.883,17.463-9.883c11.417,0,18.422,7.676,18.422,19.957v30.703h-7.389v-28.977
		c0-9.594-4.797-14.967-12.856-14.967c-7.484,0-13.721,5.564-13.721,15.352v28.592h-7.292v-29.168
		c0-9.307-4.894-14.775-12.761-14.775c-7.868,0-13.816,6.523-13.816,15.639v28.305h-7.388V321.735z"/>
	<path fill="#333333" d="M759.227,366.062c6.812,0,11.609-2.782,15.639-7.004l4.605,4.126c-4.989,5.564-11.033,9.307-20.437,9.307
		c-13.624,0-24.755-10.458-24.755-25.905c0-14.393,10.075-25.906,23.795-25.906c14.681,0,23.124,11.705,23.124,26.289
		c0,0.672,0,1.439-0.097,2.591h-39.338C742.819,360.018,750.495,366.062,759.227,366.062z M773.714,343.611
		c-0.863-9.02-6.044-16.695-15.831-16.695c-8.539,0-15.063,7.101-16.119,16.695H773.714z"/>
	<path fill="#333333" d="M794.148,321.735h7.389v8.635c3.262-5.373,8.443-9.69,16.982-9.69c11.993,0,18.998,8.06,18.998,19.861
		v30.799h-7.389v-28.977c0-9.211-4.989-14.967-13.721-14.967c-8.539,0-14.871,6.236-14.871,15.543v28.4h-7.389V321.735z"/>
	<path fill="#333333" d="M855.84,358.195V328.26h-6.908v-6.524h6.908v-14.968h7.389v14.968h15.734v6.524h-15.734v28.976
		c0,6.045,3.357,8.252,8.347,8.252c2.495,0,4.605-0.479,7.196-1.728v6.333c-2.591,1.343-5.373,2.11-8.923,2.11
		C861.885,372.203,855.84,368.27,855.84,358.195z"/>
</g>
<g>
	<path fill="#057899" d="M170,135v109h108V135H170z M258,224h-68v-69h68V224z"/>
	<path fill="#F67C00" d="M80,224v110h111V224H80z M170,314h-69v-70h69V314z"/>
	<path fill="#F6AC00" d="M170,314v110h108V314H170z M258,403h-68v-69h68V403z"/>
</g>
<g>
</g>
<g>
</g>
<g>
</g>
<g>
</g>
<g>
</g>
<g>
</g>
<g>
</g>
<g>
</g>
<g>
</g>
<g>
</g>
<g>
</g>
<g>
</g>
<g>
</g>
<g>
</g>
<g>
</g>
</svg>
