<?xml version="1.0" encoding="utf-8"?>
<!-- Generator: Adobe Illustrator 16.0.0, SVG Export Plug-In . SVG Version: 6.00 Build 0)  -->
<!DOCTYPE svg PUBLIC "-//W3C//DTD SVG 1.1//EN" "http://www.w3.org/Graphics/SVG/1.1/DTD/svg11.dtd">
<svg version="1.1" id="Layer_1" xmlns="http://www.w3.org/2000/svg" xmlns:xlink="http://www.w3.org/1999/xlink" x="0px" y="0px"
	 width="960px" height="560px" viewBox="0 0 960 560" enable-background="new 0 0 960 560" xml:space="preserve">
<g>
	
		<rect x="36.934" y="96.494" transform="matrix(-0.7071 0.7071 -0.7071 -0.7071 614.4872 1208.6038)" fill="#EEEEEE" width="40" height="1270.145"/>
	
		<rect x="93.501" y="39.925" transform="matrix(-0.7071 0.7071 -0.7071 -0.7071 671.0411 1072.0554)" fill="#EEEEEE" width="40.001" height="1270.145"/>
	
		<rect x="150.071" y="-16.642" transform="matrix(-0.7071 0.7071 -0.7071 -0.7071 727.6367 935.4476)" fill="#EEEEEE" width="40" height="1270.143"/>
	
		<rect x="206.639" y="-73.211" transform="matrix(-0.7071 0.7071 -0.7071 -0.7071 784.1929 798.8983)" fill="#EEEEEE" width="40" height="1270.143"/>
	
		<rect x="263.208" y="-129.778" transform="matrix(-0.7071 0.7071 -0.7071 -0.7071 840.762 662.3309)" fill="#EEEEEE" width="40" height="1270.142"/>
	
		<rect x="319.778" y="-186.346" transform="matrix(-0.7071 0.7071 -0.7071 -0.7071 897.3347 525.7429)" fill="#EEEEEE" width="39.998" height="1270.142"/>
	
		<rect x="376.346" y="-242.917" transform="matrix(-0.7071 0.7071 -0.7071 -0.7071 953.8992 389.1733)" fill="#EEEEEE" width="39.998" height="1270.144"/>
	
		<rect x="432.914" y="-299.485" transform="matrix(-0.7071 0.7071 -0.7071 -0.7071 1010.4647 252.6052)" fill="#EEEEEE" width="40" height="1270.144"/>
	
		<rect x="489.482" y="-356.053" transform="matrix(-0.7071 0.7071 -0.7071 -0.7071 1067.0359 116.0564)" fill="#EEEEEE" width="40" height="1270.143"/>
	
		<rect x="546.05" y="-412.621" transform="matrix(-0.7071 0.7071 -0.7071 -0.7071 1123.6042 -20.5118)" fill="#EEEEEE" width="40" height="1270.143"/>
	
		<rect x="602.618" y="-469.19" transform="matrix(-0.7071 0.7071 -0.7071 -0.7071 1180.1843 -157.0608)" fill="#EEEEEE" width="40.001" height="1270.144"/>
	
		<rect x="659.186" y="-525.76" transform="matrix(-0.7071 0.7071 -0.7071 -0.7071 1236.7543 -293.6304)" fill="#EEEEEE" width="40.001" height="1270.145"/>
	
		<rect x="715.755" y="-582.329" transform="matrix(-0.7071 0.7071 -0.7071 -0.7071 1293.3254 -430.1985)" fill="#EEEEEE" width="40.001" height="1270.145"/>
	
		<rect x="772.325" y="-638.896" transform="matrix(-0.7071 0.7071 -0.7071 -0.7071 1349.8799 -566.786)" fill="#EEEEEE" width="40" height="1270.144"/>
	
		<rect x="828.892" y="-695.463" transform="matrix(-0.7071 0.7071 -0.7071 -0.7071 1406.4146 -703.3818)" fill="#EEEEEE" width="40.002" height="1270.142"/>
</g>
<g>
	<g>
		<defs>
			<rect id="SVGID_1_" x="49.274" y="186.264" width="861.453" height="187.47"/>
		</defs>
		<clipPath id="SVGID_2_">
			<use xlink:href="#SVGID_1_"  overflow="visible"/>
		</clipPath>
		<g clip-path="url(#SVGID_2_)">
			<defs>
				<rect id="SVGID_3_" x="40.058" y="186.264" width="879.374" height="187.47"/>
			</defs>
			<clipPath id="SVGID_4_">
				<use xlink:href="#SVGID_3_"  overflow="visible"/>
			</clipPath>
			<g clip-path="url(#SVGID_4_)">
				<path fill="#007799" d="M77.05,244.732H53.514v-12.086h60.218v12.086H90.196v62.127H77.05V244.732z"/>
				<path fill="#007799" d="M110.973,279.188v-0.212c0-16.009,12.722-29.261,29.897-29.261s29.791,13.04,29.791,29.049v0.212
					c0,15.903-12.722,29.155-30.003,29.155C123.589,308.131,110.973,295.092,110.973,279.188z M157.833,279.188v-0.212
					c0-9.859-7.103-18.023-17.175-18.023c-10.284,0-16.857,8.058-16.857,17.812v0.212c0,9.754,7.103,18.024,17.069,18.024
					C151.26,297,157.833,288.836,157.833,279.188z"/>
				<path fill="#007799" d="M183.062,286.504v-35.623h12.828v31.806c0,8.693,4.347,13.676,11.98,13.676
					c7.421,0,12.616-5.195,12.616-13.889v-31.593h12.828v55.978h-12.828v-8.693c-3.604,5.301-8.8,9.859-17.493,9.859
					C190.377,308.025,183.062,299.543,183.062,286.504z"/>
				<path fill="#007799" d="M246.352,279.188v-0.212c0-15.902,12.298-29.261,29.049-29.261c10.602,0,17.175,3.923,22.37,9.647
					l-7.951,8.588c-3.923-4.135-8.057-6.998-14.524-6.998c-9.33,0-16.115,8.058-16.115,17.812v0.212
					c0,9.965,6.891,18.024,16.751,18.024c6.043,0,10.496-2.863,14.524-6.998l7.739,7.633c-5.513,6.15-11.98,10.496-22.9,10.496
					C258.649,308.131,246.352,295.092,246.352,279.188z"/>
				<path fill="#007799" d="M309.959,229.466h12.829v30.109c3.604-5.301,8.799-9.859,17.493-9.859
					c12.616,0,19.932,8.481,19.932,21.521v35.623h-12.828v-31.806c0-8.693-4.347-13.676-11.98-13.676
					c-7.421,0-12.616,5.194-12.616,13.888v31.594h-12.829V229.466z"/>
				<path fill="#007799" d="M594.809,296.045l7.846-9.33c7.102,6.15,14.205,9.648,23.43,9.648c8.057,0,13.146-3.711,13.146-9.33
					v-0.211c0-5.301-2.969-8.165-16.752-11.345c-15.797-3.816-24.701-8.48-24.701-22.157v-0.212
					c0-12.723,10.602-21.522,25.338-21.522c10.814,0,19.4,3.287,26.928,9.33l-6.996,9.859c-6.68-4.982-13.359-7.633-20.145-7.633
					c-7.633,0-12.086,3.923-12.086,8.8v0.212c0,5.725,3.393,8.27,17.6,11.662c15.691,3.816,23.854,9.436,23.854,21.733v0.213
					c0,13.889-10.92,22.158-26.504,22.158C614.422,307.92,603.713,303.996,594.809,296.045z"/>
				<path fill="#007799" d="M663.08,279.188v-0.212c0-15.902,12.299-29.261,29.051-29.261c10.602,0,17.174,3.923,22.369,9.647
					l-7.951,8.588c-3.924-4.135-8.059-6.998-14.525-6.998c-9.33,0-16.115,8.058-16.115,17.812v0.212
					c0,9.965,6.893,18.024,16.752,18.024c6.043,0,10.496-2.863,14.523-6.998l7.74,7.633c-5.514,6.15-11.98,10.496-22.9,10.496
					C675.379,308.131,663.08,295.092,663.08,279.188z"/>
				<path fill="#007799" d="M722.025,279.083v-0.213c0-16.008,11.344-29.154,27.354-29.154c17.811,0,26.822,13.994,26.822,30.109
					c0,1.166-0.107,2.332-0.213,3.605h-41.135c1.379,9.117,7.846,14.205,16.115,14.205c6.254,0,10.707-2.332,15.16-6.678
					l7.527,6.678c-5.301,6.361-12.617,10.496-22.9,10.496C734.535,308.131,722.025,296.363,722.025,279.083z M763.479,274.948
					c-0.848-8.27-5.725-14.736-14.207-14.736c-7.846,0-13.357,6.043-14.523,14.736H763.479z"/>
				<path fill="#007799" d="M789.131,250.881h12.828v8.693c3.604-5.301,8.799-9.859,17.492-9.859
					c12.617,0,19.932,8.481,19.932,21.521v35.623h-12.828v-31.806c0-8.693-4.348-13.676-11.98-13.676
					c-7.422,0-12.615,5.194-12.615,13.888v31.594h-12.828V250.881z"/>
				<path fill="#007799" d="M851.783,279.083v-0.213c0-16.008,11.346-29.154,27.354-29.154c17.811,0,26.822,13.994,26.822,30.109
					c0,1.166-0.105,2.332-0.211,3.605h-41.137c1.379,9.117,7.846,14.205,16.115,14.205c6.256,0,10.709-2.332,15.16-6.678
					l7.527,6.678c-5.301,6.361-12.615,10.496-22.898,10.496C864.295,308.131,851.783,296.363,851.783,279.083z M893.236,274.948
					c-0.848-8.27-5.725-14.736-14.205-14.736c-7.846,0-13.359,6.043-14.525,14.736H893.236z"/>
			</g>
			<path clip-path="url(#SVGID_4_)" fill="#007799" d="M542.225,314.242c-18.912,0-34.242-15.332-34.242-34.243
				c0-18.912,15.33-34.24,34.242-34.24c3.173,0,6.242,0.441,9.157,1.249c-7.571-15.8-20.414-28.586-36.249-36.098
				c0.888,3.045,1.373,6.263,1.373,9.595c0,18.912-15.33,34.242-34.242,34.242c-18.909,0-34.239-15.33-34.239-34.242
				c0-3.274,0.469-6.437,1.327-9.436c-15.69,7.541-28.406,20.282-35.919,35.988c2.969-0.84,6.099-1.299,9.337-1.299
				c18.911,0,34.242,15.329,34.242,34.241c0,18.911-15.331,34.243-34.242,34.243c-3.238,0-6.368-0.459-9.337-1.3
				c7.514,15.707,20.229,28.449,35.92,35.99c-0.859-2.999-1.328-6.162-1.328-9.437c0-18.912,15.33-34.242,34.239-34.242
				c18.912,0,34.242,15.33,34.242,34.242c0,3.332-0.485,6.55-1.373,9.595c15.834-7.511,28.677-20.298,36.249-36.097
				C548.466,313.802,545.397,314.242,542.225,314.242z"/>
			<path clip-path="url(#SVGID_4_)" fill="#F62100" d="M406.037,280c0,9.241,7.492,16.733,16.733,16.733
				c9.24,0,16.733-7.492,16.733-16.733c0-9.242-7.493-16.733-16.733-16.733C413.528,263.266,406.037,270.757,406.037,280"/>
			<path clip-path="url(#SVGID_4_)" fill="#F62100" d="M465.531,220.505c0,9.241,7.493,16.734,16.733,16.734
				c9.242,0,16.734-7.493,16.734-16.734c0-9.241-7.492-16.733-16.734-16.733C473.023,203.772,465.531,211.264,465.531,220.505"/>
			<path clip-path="url(#SVGID_4_)" fill="#F62100" d="M525.49,280c0,9.241,7.49,16.733,16.734,16.733
				c9.242,0,16.732-7.492,16.732-16.733c0-9.242-7.49-16.733-16.732-16.733C532.98,263.266,525.49,270.757,525.49,280"/>
			<path clip-path="url(#SVGID_4_)" fill="#F62100" d="M465.531,339.496c0,9.24,7.493,16.732,16.733,16.732
				c9.242,0,16.734-7.492,16.734-16.732c0-9.244-7.492-16.732-16.734-16.732C473.023,322.764,465.531,330.252,465.531,339.496"/>
		</g>
	</g>
</g>
</svg>
